<?xml version="1.0" encoding="UTF-8"?>
<svg id="Layer_2" xmlns="http://www.w3.org/2000/svg" viewBox="0 0 735.587 309.963">
    <g id="Layer_1-2">
        <path d="M84.32,51.534c-1.171-2.543-2.694-4.803-4.571-6.781-1.877-1.978-3.976-3.652-6.297-5.025-2.322-1.372-4.774-2.411-7.356-3.118-2.583-.706-5.146-1.06-7.689-1.06-2.785,0-5.41.495-7.871,1.483-2.462.989-4.753,2.342-6.872,4.057-2.119,1.716-4.047,3.754-5.782,6.115-1.736,2.361-3.26,4.904-4.571,7.629-1.312,2.725-2.392,5.581-3.239,8.567-.848,2.987-1.453,5.975-1.816,8.961h51.586c-.848,1.695-1.494,3.481-1.938,5.358-.445,1.877-.767,3.623-.969,5.237-.242,1.897-.384,3.734-.424,5.51l-1.998.363c-.525-2.583-1.171-4.723-1.938-6.418-.767-1.695-1.917-3.027-3.451-3.996-1.535-.969-3.583-1.645-6.146-2.028-2.564-.383-5.903-.575-10.021-.575h-25.066v2.604c0,3.27.383,6.479,1.15,9.627.766,3.148,1.856,6.146,3.27,8.991,1.413,2.846,3.148,5.46,5.207,7.841,2.059,2.382,4.359,4.45,6.902,6.206s5.328,3.118,8.355,4.087,6.236,1.453,9.627,1.453c3.067,0,5.772-.292,8.113-.878,2.34-.585,4.369-1.321,6.085-2.21,1.715-.888,3.158-1.866,4.329-2.937,1.17-1.069,2.139-2.089,2.906-3.058.766-.969,1.341-1.826,1.726-2.573.383-.746.675-1.241.878-1.483l-.969,8.537c-.929,1.292-2.281,2.533-4.057,3.724-1.777,1.191-3.885,2.261-6.327,3.209-2.443.948-5.177,1.705-8.204,2.271-3.027.564-6.297.848-9.809.848-6.742,0-13.108-.989-19.103-2.967s-11.262-4.783-15.803-8.416-8.154-8.022-10.838-13.169c-2.685-5.146-4.067-10.888-4.147-17.226.121-6.539,1.261-12.422,3.421-17.649,2.159-5.227,5.045-9.788,8.658-13.684,3.612-3.895,7.82-7.124,12.624-9.688,4.803-2.562,9.93-4.47,15.379-5.722,2.866-.686,6.155-1.13,9.869-1.332,3.713-.201,7.447-.303,11.201-.303,3.633,0,7.054.041,10.263.121,3.209.081,5.903.121,8.083.121-.445,1.897-.757,3.583-.938,5.056-.182,1.474-.272,2.856-.272,4.147,0,1.816.141,3.502.424,5.056.282,1.555.666,3.22,1.15,4.995l-2.725.121Z"
              style="fill:#0e192a; stroke:#f2f1e5; stroke-miterlimit:10; stroke-width:2.5px;"/>
        <path d="M89.096,63.344h25.258c2.864,0,5.805.199,8.825.595,3.019.397,5.969,1.045,8.851,1.941,2.881.897,5.598,2.07,8.152,3.52,2.553,1.449,4.788,3.227,6.703,5.331,1.915,2.105,3.433,4.563,4.555,7.376,1.121,2.812,1.682,6.029,1.682,9.652,0,4.141-.742,7.971-2.226,11.49-1.484,3.52-3.571,6.565-6.263,9.135-2.691,2.571-5.9,4.581-9.627,6.03s-7.833,2.174-12.318,2.174c-2.381,0-4.365-.225-5.952-.673-1.587-.449-3.02-1.035-4.296-1.76l4.658-3.52c.862.967,1.794,1.665,2.795,2.096,1,.433,2.226.647,3.675.647,2.001,0,3.856-.561,5.564-1.683,1.708-1.12,3.183-2.769,4.425-4.942s2.217-4.848,2.924-8.022c.707-3.174,1.061-6.797,1.061-10.869,0-3.554-.414-6.642-1.242-9.265-.828-2.622-1.907-4.873-3.235-6.755-1.329-1.88-2.838-3.416-4.529-4.605-1.691-1.191-3.39-2.131-5.098-2.821-1.708-.689-3.347-1.165-4.917-1.423-1.57-.26-2.924-.389-4.063-.389h-3.209v66.043c0,.518.078,1.087.233,1.708s.474,1.207.958,1.76c.483.552,1.173,1.018,2.07,1.397.897.379,2.104.569,3.623.569v1.915h-29.036v-1.915c1.449,0,2.631-.147,3.545-.44.914-.293,1.63-.69,2.148-1.189.518-.501.88-1.079,1.087-1.734.207-.656.311-1.346.311-2.07v-62.42c0-.518-.086-1.095-.259-1.734-.173-.638-.509-1.232-1.009-1.785-.5-.552-1.216-1.01-2.148-1.371-.932-.363-2.157-.544-3.675-.544v-1.449Z"
              style="fill:#0e192a; stroke:#f2f1e5; stroke-miterlimit:10; stroke-width:2.5px;"/>
        <path d="M156.521,91.189c0-2.174.276-4.407.828-6.702.552-2.295,1.397-4.546,2.536-6.755,1.139-2.208,2.579-4.287,4.322-6.237,1.742-1.948,3.795-3.665,6.159-5.149,2.363-1.483,5.055-2.656,8.074-3.52,3.019-.862,6.375-1.294,10.067-1.294,3.864,0,7.341.397,10.429,1.19,3.088.794,5.823,1.89,8.204,3.286,2.381,1.398,4.434,3.046,6.159,4.943,1.725,1.898,3.14,3.951,4.244,6.159,1.104,2.209,1.915,4.512,2.433,6.909.518,2.399.776,4.788.776,7.169,0,2.277-.259,4.581-.776,6.909-.518,2.33-1.337,4.581-2.458,6.755-1.122,2.174-2.536,4.218-4.244,6.134-1.708,1.914-3.761,3.58-6.159,4.994-2.398,1.415-5.142,2.536-8.229,3.364-3.088.828-6.547,1.242-10.377,1.242-3.692,0-7.039-.406-10.041-1.216-3.002-.811-5.685-1.924-8.048-3.339-2.364-1.414-4.417-3.079-6.159-4.995-1.743-1.914-3.192-3.959-4.348-6.133-1.156-2.174-2.01-4.434-2.562-6.78-.552-2.346-.828-4.658-.828-6.936ZM172.307,90.982c0,3.278.233,6.47.699,9.575s1.294,5.866,2.484,8.281c1.19,2.416,2.812,4.373,4.865,5.875,2.053,1.5,4.667,2.286,7.841,2.354,2.104,0,3.985-.354,5.642-1.062,1.656-.706,3.105-1.682,4.348-2.924s2.294-2.691,3.157-4.348c.862-1.656,1.57-3.433,2.122-5.331.552-1.897.958-3.864,1.216-5.9.259-2.035.422-4.054.492-6.056,0-2.035-.104-4.105-.311-6.211-.207-2.104-.552-4.132-1.035-6.082-.483-1.948-1.13-3.777-1.941-5.486-.811-1.707-1.82-3.19-3.028-4.451-1.208-1.259-2.631-2.251-4.27-2.976-1.639-.725-3.545-1.087-5.719-1.087-3.175,0-5.814.717-7.919,2.148-2.105,1.432-3.796,3.338-5.072,5.719-1.277,2.381-2.183,5.133-2.717,8.256-.535,3.123-.82,6.357-.854,9.704Z"
              style="fill:#0e192a; stroke:#f2f1e5; stroke-miterlimit:10; stroke-width:2.5px;"/>
        <path d="M278.653,77.215l-1.708.104c-.794-1.621-1.812-3.07-3.054-4.348-1.242-1.276-2.614-2.354-4.115-3.235-1.501-.879-3.071-1.553-4.71-2.018-1.639-.467-3.235-.699-4.788-.699-3.071,0-5.849.776-8.333,2.329s-4.606,3.563-6.366,6.03-3.123,5.236-4.089,8.307c-.966,3.071-1.449,6.107-1.449,9.109,0,3.175.535,6.22,1.604,9.135,1.069,2.917,2.588,5.486,4.555,7.713,1.967,2.225,4.365,4.003,7.194,5.33,2.829,1.329,6.004,1.993,9.523,1.993,2.898,0,5.305-.405,7.22-1.216s3.45-1.726,4.606-2.744c1.156-1.017,2.001-1.975,2.536-2.872.535-.896.871-1.449,1.009-1.656l-.725,6.056c-.621.897-1.527,1.743-2.717,2.536-1.19.794-2.588,1.484-4.192,2.07s-3.399,1.043-5.383,1.372c-1.984.327-4.098.491-6.34.491-5.142,0-9.826-.544-14.052-1.63-4.227-1.088-7.867-2.744-10.921-4.969-3.054-2.227-5.417-5.021-7.091-8.385-1.674-3.365-2.51-7.307-2.51-11.827.104-4.071.673-7.66,1.708-10.766s2.467-5.813,4.296-8.126c1.829-2.312,4.011-4.244,6.547-5.797s5.339-2.803,8.411-3.752c3.071-.949,6.392-1.622,9.963-2.02,3.571-.396,7.289-.595,11.154-.595,2.553,0,4.788.035,6.703.104,1.915.069,3.666.104,5.253.104-.311,1.208-.526,2.484-.647,3.83-.121,1.346-.181,2.468-.181,3.364,0,1.208.095,2.347.285,3.416.189,1.07.457,2.157.802,3.261Z"
              style="fill:#0e192a; stroke:#f2f1e5; stroke-miterlimit:10; stroke-width:2.5px;"/>
        <path d="M309.692,118.983h-29.709v-1.915c1.449,0,2.622-.146,3.52-.44.897-.292,1.604-.689,2.122-1.189s.871-1.069,1.061-1.709c.189-.638.285-1.319.285-2.044v-57.141c0-.518-.095-1.069-.285-1.656-.19-.586-.543-1.13-1.061-1.63s-1.225-.923-2.122-1.269c-.897-.345-2.07-.518-3.52-.518v-1.915h22.67v25.103c.69-1.207,1.518-2.389,2.484-3.546.966-1.155,2.096-2.216,3.39-3.183,1.294-.966,2.76-1.812,4.399-2.536,1.639-.725,3.494-1.276,5.564-1.656,2.898-.518,5.486-.604,7.764-.259,2.277.346,4.278,1.001,6.004,1.967,1.725.967,3.191,2.2,4.399,3.7,1.208,1.502,2.191,3.167,2.95,4.995.759,1.829,1.311,3.778,1.656,5.849.345,2.07.518,4.141.518,6.211v27.483c0,.518.086,1.087.259,1.708.172.621.5,1.199.983,1.734.483.535,1.182.992,2.096,1.371.914.38,2.13.569,3.649.569v1.915h-29.036v-1.915c1.449,0,2.622-.146,3.52-.44.897-.292,1.604-.689,2.122-1.189s.871-1.069,1.061-1.709c.189-.638.285-1.319.285-2.044v-30.641c0-2.691-.311-4.969-.932-6.832s-1.449-3.339-2.484-4.425c-1.035-1.088-2.243-1.803-3.623-2.148-1.38-.345-2.847-.327-4.399.052-2.14.518-3.994,1.423-5.564,2.718-1.57,1.293-2.864,2.846-3.882,4.658-1.018,1.811-1.786,3.839-2.303,6.081-.518,2.243-.811,4.572-.88,6.987v23.55c0,.518.086,1.087.259,1.708.172.621.509,1.199,1.009,1.734.5.535,1.208.992,2.122,1.371.914.38,2.13.569,3.649.569v1.915Z"
              style="fill:#0e192a; stroke:#f2f1e5; stroke-miterlimit:10; stroke-width:2.5px;"/>
        <path d="M362.987,32.159h40.506v2.24c-1.535,0-2.807.111-3.814.333-1.01.223-1.808.535-2.392.938-.586.404-.999.889-1.241,1.453-.242.565-.363,1.191-.363,1.877v.484c1.371,5.854,2.854,11.494,4.45,16.923,1.594,5.43,3.27,10.929,5.025,16.499s3.592,11.363,5.51,17.377c1.916,6.015,3.905,12.514,5.964,19.496,2.301-6.256,4.299-12.099,5.994-17.528,1.695-5.429,3.168-10.515,4.42-15.258,1.25-4.742,2.31-9.183,3.179-13.32.867-4.137,1.624-8.062,2.271-11.776l-2.18-9.021c-.283-.848-.757-1.766-1.423-2.755-.666-.988-1.565-1.907-2.694-2.755-1.131-.848-2.534-1.554-4.208-2.119-1.676-.564-3.663-.848-5.964-.848v-2.24h40.566v2.24c-1.574,0-2.867.111-3.875.333-1.01.223-1.808.535-2.392.938-.586.404-.99.889-1.211,1.453-.223.565-.333,1.191-.333,1.877v.727c1.291,5.812,2.604,11.434,3.936,16.862,1.332,5.43,2.744,10.919,4.238,16.469,1.492,5.551,3.077,11.322,4.753,17.316,1.674,5.994,3.521,12.463,5.54,19.405,2.865-7.83,5.367-15.025,7.508-21.585,2.139-6.559,3.996-12.624,5.57-18.194s2.906-10.706,3.996-15.409c1.09-4.702,2.018-9.112,2.785-13.229v-.242c0-.969-.182-1.866-.545-2.694-.363-.827-.96-1.533-1.786-2.119-.828-.585-1.898-1.049-3.209-1.393-1.312-.343-2.937-.515-4.874-.515v-2.24h26.762c-2.1,6.66-4.441,13.502-7.023,20.525-2.584,7.023-5.298,14.067-8.144,21.131-2.846,7.064-5.743,14.088-8.688,21.07-2.947,6.983-5.834,13.785-8.658,20.404l-20.223,3.693c-2.664-8.678-5.097-16.912-7.296-24.703-2.201-7.79-4.269-15.419-6.206-22.887-2.625,7.508-5.339,14.936-8.144,22.281-2.807,7.347-5.702,14.552-8.688,21.615l-20.223,3.693c-2.18-7.063-4.29-13.824-6.327-20.283-2.039-6.458-4.018-12.775-5.934-18.951-1.918-6.176-3.765-12.291-5.54-18.346-1.777-6.055-3.451-12.23-5.025-18.527h-.121c-.283-.848-.748-1.766-1.393-2.755-.646-.988-1.544-1.907-2.694-2.755s-2.554-1.554-4.208-2.119c-1.656-.564-3.633-.848-5.934-.848v-2.24Z"
              style="fill:#0e192a; stroke:#f2f1e5; stroke-miterlimit:10; stroke-width:2.5px;"/>
        <path d="M502.613,91.189c0-2.174.275-4.407.828-6.702.552-2.295,1.397-4.546,2.536-6.755,1.139-2.208,2.579-4.287,4.321-6.237,1.742-1.948,3.796-3.665,6.159-5.149,2.363-1.483,5.055-2.656,8.074-3.52,3.02-.862,6.375-1.294,10.067-1.294,3.864,0,7.341.397,10.429,1.19,3.088.794,5.823,1.89,8.204,3.286,2.381,1.398,4.434,3.046,6.159,4.943,1.725,1.898,3.14,3.951,4.244,6.159,1.104,2.209,1.915,4.512,2.433,6.909.518,2.399.776,4.788.776,7.169,0,2.277-.259,4.581-.776,6.909-.518,2.33-1.338,4.581-2.459,6.755s-2.536,4.218-4.244,6.134c-1.708,1.914-3.761,3.58-6.159,4.994-2.398,1.415-5.142,2.536-8.229,3.364s-6.547,1.242-10.377,1.242c-3.692,0-7.039-.406-10.041-1.216-3.002-.811-5.686-1.924-8.049-3.339-2.363-1.414-4.417-3.079-6.159-4.995-1.742-1.914-3.191-3.959-4.348-6.133s-2.01-4.434-2.562-6.78c-.553-2.346-.828-4.658-.828-6.936ZM518.399,90.982c0,3.278.232,6.47.698,9.575s1.294,5.866,2.484,8.281c1.19,2.416,2.812,4.373,4.865,5.875,2.053,1.5,4.667,2.286,7.842,2.354,2.104,0,3.985-.354,5.642-1.062,1.656-.706,3.105-1.682,4.348-2.924s2.294-2.691,3.157-4.348c.862-1.656,1.569-3.433,2.122-5.331.552-1.897.957-3.864,1.216-5.9.259-2.035.423-4.054.492-6.056,0-2.035-.104-4.105-.311-6.211-.207-2.104-.553-4.132-1.035-6.082-.483-1.948-1.131-3.777-1.941-5.486-.811-1.707-1.82-3.19-3.027-4.451-1.208-1.259-2.632-2.251-4.271-2.976s-3.545-1.087-5.719-1.087c-3.175,0-5.814.717-7.919,2.148-2.105,1.432-3.796,3.338-5.072,5.719-1.277,2.381-2.183,5.133-2.718,8.256s-.819,6.357-.854,9.704Z"
              style="fill:#0e192a; stroke:#f2f1e5; stroke-miterlimit:10; stroke-width:2.5px;"/>
        <path d="M632.665,118.569c-2.45.896-4.702,1.527-6.755,1.889-2.053.363-3.925.544-5.615.544-2.036,0-4.029-.449-5.979-1.346s-3.804-2.053-5.563-3.468c-1.76-1.414-3.408-3.002-4.943-4.762s-2.916-3.502-4.141-5.228c-1.225-1.725-2.277-3.347-3.157-4.865-.88-1.518-1.544-2.743-1.992-3.675,3.347-.552,6.349-1.535,9.006-2.95,1.139-.621,2.242-1.354,3.312-2.2,1.069-.845,2.026-1.854,2.872-3.027.846-1.173,1.527-2.501,2.045-3.985.518-1.483.776-3.174.776-5.072,0-2.622-.483-4.788-1.449-6.495-.967-1.709-2.166-3.062-3.598-4.063-1.432-1-2.984-1.699-4.658-2.097-1.674-.396-3.2-.595-4.58-.595s-2.528.139-3.442.414c-.914.276-1.639.639-2.174,1.087-.535.449-.905.976-1.112,1.578-.207.604-.311,1.234-.311,1.89v39.543c0,.518.086,1.087.259,1.708.172.621.509,1.199,1.009,1.734s1.208.992,2.122,1.371c.914.38,2.131.569,3.649.569v1.915h-29.191v-1.915c1.449,0,2.631-.146,3.545-.44.914-.292,1.631-.689,2.148-1.189s.871-1.069,1.061-1.709c.189-.638.285-1.319.285-2.044v-41.251c0-.518-.096-1.078-.285-1.682s-.543-1.156-1.061-1.656-1.234-.914-2.148-1.242-2.096-.492-3.545-.492v-2.019h29.191c3.727,0,7.384.319,10.973.958,3.588.639,6.788,1.647,9.601,3.027,2.812,1.381,5.081,3.149,6.807,5.305,1.725,2.157,2.588,4.754,2.588,7.79,0,2.416-.535,4.538-1.604,6.366-1.07,1.829-2.484,3.425-4.244,4.787-1.76,1.364-3.771,2.503-6.03,3.416-2.26.915-4.58,1.666-6.961,2.252,1.311,2.416,2.829,4.806,4.555,7.168,1.725,2.364,3.468,4.478,5.228,6.341s3.459,3.364,5.098,4.503,3.028,1.708,4.167,1.708c.345,0,.836-.043,1.475-.13.639-.085,1.354-.284,2.148-.595l.621,2.329Z"
              style="fill:#0e192a; stroke:#f2f1e5; stroke-miterlimit:10; stroke-width:2.5px;"/>
        <path d="M631.614,117.068c1.346,0,2.467-.13,3.364-.388.896-.26,1.612-.612,2.147-1.062.535-.448.914-.975,1.139-1.579.225-.603.337-1.25.337-1.94V44.452c0-.518-.096-1.078-.285-1.682s-.543-1.156-1.061-1.656-1.226-.914-2.122-1.242c-.897-.328-2.07-.492-3.52-.492v-2.019h22.049v74.635c0,.518.095,1.07.284,1.656.189.587.544,1.131,1.062,1.63.518.501,1.233.924,2.147,1.269.914.346,2.079.518,3.494.518v1.915h-29.036v-1.915Z"
              style="fill:#0e192a; stroke:#f2f1e5; stroke-miterlimit:10; stroke-width:2.5px;"/>
        <path d="M709.701,110.599c-.828,1.242-1.847,2.459-3.054,3.648-1.208,1.191-2.64,2.261-4.296,3.209-1.656.95-3.537,1.709-5.642,2.277-2.105.57-4.486.854-7.143.854-4.486,0-8.429-.802-11.827-2.407-3.398-1.604-6.236-3.708-8.514-6.314-2.277-2.604-3.994-5.546-5.15-8.824-1.156-3.277-1.733-6.59-1.733-9.938,0-2.519.25-5.055.75-7.608.5-2.553,1.269-5.012,2.304-7.376,1.035-2.362,2.346-4.58,3.934-6.65,1.587-2.07,3.484-3.873,5.693-5.408,2.208-1.535,4.727-2.744,7.557-3.623,2.829-.881,6.004-1.32,9.523-1.32,2.001,0,3.882.164,5.642.492s3.372.759,4.839,1.293c1.467.536,2.795,1.139,3.985,1.812,1.191.672,2.234,1.337,3.132,1.992v-22.256c0-.518-.096-1.078-.284-1.682-.19-.604-.544-1.156-1.062-1.656s-1.226-.914-2.122-1.242c-.897-.328-2.07-.492-3.52-.492v-2.019h22.049v74.635c0,.518.095,1.07.285,1.656.188.587.543,1.131,1.061,1.63.518.501,1.233.924,2.148,1.269.913.346,2.078.518,3.493.518v1.915h-22.049v-8.385ZM693.397,115.153c2.242,0,4.209-.414,5.9-1.242,1.69-.828,3.14-1.863,4.348-3.105,1.207-1.242,2.199-2.613,2.976-4.115.776-1.5,1.397-2.932,1.864-4.295.465-1.363.784-2.554.957-3.572.172-1.017.259-1.682.259-1.992v-20.237l-3.985,5.383c-.173-3.14-.725-5.952-1.656-8.437-.414-1.069-.932-2.113-1.553-3.131s-1.39-1.924-2.304-2.718c-.914-.793-1.992-1.432-3.234-1.915-1.242-.482-2.675-.725-4.296-.725-2.588,0-4.831.656-6.729,1.967-1.898,1.312-3.451,3.098-4.658,5.357-1.208,2.26-2.105,4.891-2.691,7.893-.587,3.002-.88,6.194-.88,9.575,0,4.417.422,8.213,1.268,11.387.846,3.175,1.976,5.797,3.391,7.867,1.414,2.07,3.07,3.597,4.969,4.581,1.897.982,3.916,1.475,6.056,1.475Z"
              style="fill:#0e192a; stroke:#f2f1e5; stroke-miterlimit:10; stroke-width:2.5px;"/>
        <path d="M179.564,200.334c-1.171-2.543-2.694-4.803-4.571-6.781-1.877-1.978-3.976-3.652-6.297-5.025-2.322-1.372-4.774-2.411-7.356-3.118-2.583-.706-5.146-1.06-7.689-1.06-2.785,0-5.41.495-7.871,1.483-2.462.989-4.753,2.342-6.872,4.057-2.119,1.716-4.047,3.754-5.782,6.115-1.736,2.361-3.26,4.904-4.571,7.629-1.312,2.725-2.392,5.581-3.239,8.567-.848,2.987-1.453,5.975-1.816,8.961h51.586c-.848,1.695-1.494,3.481-1.938,5.358-.445,1.877-.767,3.623-.969,5.237-.242,1.897-.384,3.734-.424,5.51l-1.998.363c-.525-2.583-1.171-4.723-1.938-6.418-.767-1.695-1.917-3.027-3.451-3.996-1.535-.969-3.583-1.645-6.146-2.028-2.564-.383-5.903-.575-10.021-.575h-25.066v2.604c0,3.27.383,6.479,1.15,9.627.766,3.148,1.856,6.146,3.27,8.991,1.413,2.846,3.148,5.46,5.207,7.841,2.059,2.382,4.359,4.45,6.902,6.206s5.328,3.118,8.355,4.087,6.236,1.453,9.627,1.453c3.067,0,5.772-.292,8.113-.878,2.34-.585,4.369-1.321,6.085-2.21,1.715-.888,3.158-1.866,4.329-2.937,1.17-1.069,2.139-2.089,2.906-3.058.766-.969,1.341-1.826,1.726-2.573.383-.746.675-1.241.878-1.483l-.969,8.537c-.929,1.292-2.281,2.533-4.057,3.724-1.777,1.191-3.885,2.261-6.327,3.209-2.443.948-5.177,1.705-8.204,2.271-3.027.564-6.297.848-9.809.848-6.742,0-13.108-.989-19.103-2.967s-11.262-4.783-15.803-8.416-8.154-8.022-10.838-13.169c-2.685-5.146-4.067-10.888-4.147-17.226.121-6.539,1.261-12.422,3.421-17.649,2.159-5.227,5.045-9.788,8.658-13.684,3.612-3.895,7.82-7.124,12.624-9.688,4.803-2.562,9.93-4.47,15.379-5.722,2.866-.686,6.155-1.13,9.869-1.332,3.713-.201,7.447-.303,11.201-.303,3.633,0,7.054.041,10.263.121,3.209.081,5.903.121,8.083.121-.445,1.897-.757,3.583-.938,5.056-.182,1.474-.272,2.856-.272,4.147,0,1.816.141,3.502.424,5.056.282,1.555.666,3.22,1.15,4.995l-2.725.121Z"
              style="fill:#0e192a; stroke:#f2f1e5; stroke-miterlimit:10; stroke-width:2.5px;"/>
        <path d="M186.254,265.868c1.518,0,2.924-.146,4.218-.44,1.294-.292,2.45-.672,3.468-1.139,1.018-.465,1.897-.991,2.64-1.578.742-.586,1.32-1.155,1.734-1.708l11.801-15.786c-.863-1.449-1.751-2.984-2.666-4.606-.915-1.621-1.829-3.261-2.743-4.917-.915-1.656-1.786-3.277-2.614-4.865-.828-1.587-1.587-3.088-2.277-4.503-.587-1.173-1.312-2.363-2.174-3.571-.863-1.207-1.803-2.303-2.821-3.287-1.018-.982-2.088-1.793-3.209-2.432-1.122-.639-2.234-.958-3.338-.958-1.001,0-2.001.139-3.002.414-1.001.276-1.984.553-2.95.828l-.518-2.122c1.139-.345,2.424-.716,3.856-1.113,1.432-.396,2.924-.75,4.477-1.061s3.131-.569,4.736-.776,3.148-.311,4.632-.311c2.312,0,4.348.414,6.107,1.242s3.373,2.002,4.839,3.52c1.466,1.519,2.864,3.339,4.192,5.46,1.328,2.123,2.717,4.478,4.167,7.065l1.242,2.433,11.024-14.751c.276-.448.414-.914.414-1.397,0-.414-.268-.741-.802-.983-.535-.241-1.527-.362-2.976-.362v-2.019h18.84v2.019c-1.484,0-2.864.147-4.141.439-1.277.294-2.424.674-3.442,1.139-1.018.467-1.898.993-2.64,1.579-.742.587-1.32,1.156-1.734,1.708l-12.318,16.407c1,1.795,2.027,3.571,3.08,5.331,1.052,1.76,2.148,3.555,3.287,5.383,1.139,1.829,2.329,3.71,3.571,5.642,1.242,1.933,2.57,3.934,3.985,6.004.586.863,1.216,1.674,1.889,2.433.673.76,1.372,1.433,2.096,2.019.725.587,1.449,1.053,2.174,1.397.725.346,1.415.518,2.07.518.379,0,.897-.043,1.553-.129.655-.086,1.415-.285,2.277-.596l.518,2.329c-2.45.897-4.728,1.526-6.832,1.89-2.105.361-4.055.543-5.849.543-2.691,0-5.021-.319-6.987-.957-1.967-.639-3.744-1.579-5.331-2.821-1.587-1.242-3.071-2.769-4.451-4.581-1.38-1.811-2.795-3.89-4.244-6.236l-2.847-4.71-9.006,12.111h.104c-.552.69-1.027,1.338-1.423,1.94-.397.604-.595,1.131-.595,1.579,0,.414.276.742.828.983.552.242,1.587.362,3.105.362v1.915h-18.995v-1.915Z"
              style="fill:#0e192a; stroke:#f2f1e5; stroke-miterlimit:10; stroke-width:2.5px;"/>
        <path d="M300.675,226.015l-1.708.104c-.794-1.621-1.812-3.07-3.054-4.348-1.242-1.276-2.614-2.354-4.115-3.235-1.501-.879-3.071-1.553-4.71-2.018-1.639-.467-3.235-.699-4.788-.699-3.071,0-5.849.776-8.333,2.329s-4.606,3.563-6.366,6.03-3.123,5.236-4.089,8.307c-.966,3.071-1.449,6.107-1.449,9.109,0,3.175.535,6.22,1.604,9.135,1.069,2.917,2.588,5.486,4.555,7.713,1.967,2.225,4.365,4.003,7.194,5.33,2.829,1.329,6.004,1.993,9.523,1.993,2.898,0,5.305-.405,7.22-1.216s3.45-1.726,4.606-2.744c1.156-1.017,2.001-1.975,2.536-2.872.535-.896.871-1.449,1.009-1.656l-.725,6.056c-.621.897-1.527,1.743-2.717,2.536-1.19.794-2.588,1.484-4.192,2.07s-3.399,1.043-5.383,1.372c-1.984.327-4.098.491-6.34.491-5.142,0-9.826-.544-14.052-1.63-4.227-1.088-7.867-2.744-10.921-4.969-3.054-2.227-5.417-5.021-7.091-8.385-1.674-3.365-2.51-7.307-2.51-11.827.104-4.071.673-7.66,1.708-10.766s2.467-5.813,4.296-8.126c1.829-2.312,4.011-4.244,6.547-5.797s5.339-2.803,8.411-3.752c3.071-.949,6.392-1.622,9.963-2.02,3.571-.396,7.289-.595,11.154-.595,2.553,0,4.788.035,6.703.104,1.915.069,3.666.104,5.253.104-.311,1.208-.526,2.484-.647,3.83-.121,1.346-.181,2.468-.181,3.364,0,1.208.095,2.347.285,3.416.189,1.07.457,2.157.802,3.261Z"
              style="fill:#0e192a; stroke:#f2f1e5; stroke-miterlimit:10; stroke-width:2.5px;"/>
        <path d="M331.714,267.783h-29.709v-1.915c1.449,0,2.622-.146,3.52-.44.897-.292,1.604-.689,2.122-1.189s.871-1.069,1.061-1.709c.189-.638.285-1.319.285-2.044v-57.141c0-.518-.095-1.069-.285-1.656-.19-.586-.543-1.13-1.061-1.63s-1.225-.923-2.122-1.269c-.897-.345-2.07-.518-3.52-.518v-1.915h22.67v25.103c.69-1.207,1.518-2.389,2.484-3.546.966-1.155,2.096-2.216,3.39-3.183,1.294-.966,2.76-1.812,4.399-2.536,1.639-.725,3.494-1.276,5.564-1.656,2.898-.518,5.486-.604,7.764-.259,2.277.346,4.278,1.001,6.004,1.967,1.725.967,3.191,2.2,4.399,3.7,1.208,1.502,2.191,3.167,2.95,4.995.759,1.829,1.311,3.778,1.656,5.849.345,2.07.518,4.141.518,6.211v27.483c0,.518.086,1.087.259,1.708.172.621.5,1.199.983,1.734.483.535,1.182.992,2.096,1.371.914.38,2.13.569,3.649.569v1.915h-29.036v-1.915c1.449,0,2.622-.146,3.52-.44.897-.292,1.604-.689,2.122-1.189s.871-1.069,1.061-1.709c.189-.638.285-1.319.285-2.044v-30.641c0-2.691-.311-4.969-.932-6.832s-1.449-3.339-2.484-4.425c-1.035-1.088-2.243-1.803-3.623-2.148-1.38-.345-2.847-.327-4.399.052-2.14.518-3.994,1.423-5.564,2.718-1.57,1.293-2.864,2.846-3.882,4.658-1.018,1.811-1.786,3.839-2.303,6.081-.518,2.243-.811,4.572-.88,6.987v23.55c0,.518.086,1.087.259,1.708.172.621.509,1.199,1.009,1.734.5.535,1.208.992,2.122,1.371.914.38,2.13.569,3.649.569v1.915Z"
              style="fill:#0e192a; stroke:#f2f1e5; stroke-miterlimit:10; stroke-width:2.5px;"/>
        <path d="M403.435,209.918c2.588,0,4.96.276,7.116.828,2.156.553,4.071,1.226,5.745,2.019,1.674.794,3.123,1.64,4.348,2.536,1.225.897,2.2,1.708,2.925,2.433,1.069-.828,2.226-1.579,3.468-2.251,1.242-.674,2.501-1.251,3.778-1.734,1.276-.482,2.544-.854,3.804-1.113,1.26-.258,2.459-.422,3.598-.491l.621,1.708c-1.381.553-2.623,1.449-3.727,2.691-.932,1.07-1.795,2.536-2.588,4.399-.794,1.863-1.226,4.296-1.294,7.298-.035,1.76-.052,3.589-.052,5.486s-.009,3.771-.026,5.615c-.018,1.847-.034,3.606-.052,5.279-.018,1.675-.034,3.167-.052,4.478-.018,1.312-.025,2.373-.025,3.183v1.424c0,3.002.388,5.435,1.164,7.298s1.647,3.33,2.614,4.399c1.139,1.242,2.415,2.14,3.83,2.691l-.621,1.708c-1.691-.069-3.503-.362-5.435-.88-1.933-.518-3.813-1.242-5.642-2.174-1.829-.932-3.52-2.045-5.072-3.338-1.553-1.295-2.812-2.77-3.778-4.426-.69,1.312-1.57,2.588-2.64,3.83-1.07,1.242-2.381,2.347-3.934,3.312-1.553.967-3.382,1.751-5.486,2.355-2.105.603-4.521.905-7.246.905-4.486,0-8.429-.802-11.827-2.407-3.398-1.604-6.236-3.708-8.514-6.314-2.277-2.604-3.994-5.546-5.15-8.824-1.156-3.277-1.733-6.59-1.733-9.938,0-2.519.302-5.055.905-7.608.604-2.553,1.501-5.012,2.691-7.376,1.19-2.362,2.674-4.58,4.451-6.65s3.848-3.873,6.211-5.408,5.012-2.744,7.945-3.623c2.933-.881,6.159-1.32,9.679-1.32ZM403.642,263.953c2.415,0,4.416-.552,6.004-1.656,1.587-1.104,2.854-2.449,3.804-4.037.949-1.587,1.647-3.261,2.097-5.021.448-1.76.759-3.312.932-4.658l.414-19.616c-.069-.725-.199-1.604-.389-2.64s-.475-2.104-.854-3.209c-.38-1.104-.872-2.217-1.476-3.339-.604-1.12-1.371-2.112-2.303-2.976-.932-.862-2.045-1.569-3.339-2.122-1.294-.552-2.804-.828-4.528-.828-2.588,0-4.935.656-7.039,1.967-2.105,1.312-3.899,3.098-5.383,5.357-1.484,2.26-2.632,4.891-3.442,7.893s-1.216,6.194-1.216,9.575c0,4.417.474,8.213,1.423,11.387.949,3.175,2.208,5.797,3.778,7.867s3.355,3.597,5.357,4.581c2.001.982,4.054,1.475,6.159,1.475Z"
              style="fill:#0e192a; stroke:#f2f1e5; stroke-miterlimit:10; stroke-width:2.5px;"/>
        <path d="M469.099,267.783h-29.088v-1.915c1.449,0,2.631-.146,3.546-.44.914-.292,1.63-.689,2.147-1.189s.871-1.069,1.062-1.709c.189-.638.284-1.319.284-2.044v-41.251c0-.518-.095-1.078-.284-1.682-.19-.604-.544-1.156-1.062-1.656s-1.233-.914-2.147-1.242c-.915-.328-2.097-.492-3.546-.492v-2.019h29.088v2.019c-1.38,0-2.527.139-3.441.414-.915.276-1.64.639-2.174,1.087-.535.449-.906.976-1.113,1.579s-.311,1.233-.311,1.889v13.146c1.208,2.381,2.657,4.926,4.348,7.635s3.675,5.408,5.952,8.1,4.883,5.279,7.815,7.764,6.229,4.693,9.886,6.625v-42.855c0-.518-.077-1.095-.232-1.734-.155-.638-.483-1.224-.983-1.76-.501-.534-1.208-.982-2.122-1.346-.915-.361-2.131-.543-3.649-.543v-2.019h29.036v2.019c-1.38,0-2.519.139-3.416.414-.897.276-1.613.639-2.147,1.087-.535.449-.906.976-1.113,1.579s-.311,1.233-.311,1.889v41.665c0,.518.095,1.07.285,1.656.189.587.543,1.131,1.061,1.63.518.501,1.225.924,2.122,1.269.897.346,2.07.518,3.52.518v1.915h-22.049c-2.519-.621-5.081-1.673-7.686-3.157-2.605-1.483-5.124-3.165-7.557-5.046s-4.745-3.856-6.936-5.927c-2.191-2.07-4.133-4.002-5.823-5.797v12.629c0,.518.086,1.087.259,1.708s.509,1.199,1.01,1.734c.5.535,1.207.992,2.122,1.371.914.38,2.13.569,3.648.569v1.915Z"
              style="fill:#0e192a; stroke:#f2f1e5; stroke-miterlimit:10; stroke-width:2.5px;"/>
        <path d="M511.577,215.404c.966-1.897,1.579-3.786,1.838-5.668.259-1.88.388-3.527.388-4.942,0-.379-.009-.716-.025-1.009-.018-.293-.026-.544-.026-.751-.034-.241-.052-.466-.052-.673l1.863-.311c.138,1.553.578,2.882,1.32,3.985.741,1.104,1.656,2.027,2.743,2.769,1.087.743,2.285,1.338,3.597,1.786,1.312.449,2.605.785,3.882,1.009,1.276.226,2.459.372,3.546.44,1.087.069,1.975.104,2.665.104h39.388c-.932,1.933-1.535,3.83-1.812,5.693s-.414,3.503-.414,4.917v1.01c0,.293.018.543.052.75,0,.242.018.466.052.673l-1.863.311c-.138-1.553-.578-2.881-1.319-3.985-.742-1.104-1.656-2.026-2.743-2.77-1.087-.741-2.286-1.336-3.598-1.785-1.312-.448-2.597-.784-3.855-1.01-1.26-.224-2.441-.37-3.546-.439-1.104-.068-1.984-.104-2.64-.104h-9.575c-1.553.069-3.036.389-4.451.957-1.415.57-2.657,1.381-3.727,2.434s-1.915,2.328-2.536,3.83c-.621,1.5-.932,3.2-.932,5.098,0,2.554.596,4.874,1.786,6.961,1.19,2.089,2.769,4.004,4.735,5.746s4.201,3.382,6.703,4.916c2.501,1.536,5.055,3.055,7.66,4.555,2.604,1.502,5.158,3.028,7.66,4.581,2.501,1.553,4.735,3.218,6.702,4.995s3.546,3.709,4.736,5.797,1.785,4.441,1.785,7.064c0,2.242-.457,4.355-1.371,6.34-.915,1.984-2.381,3.727-4.399,5.229-2.019,1.5-4.633,2.691-7.842,3.57-3.209.881-7.125,1.32-11.749,1.32-3.968,0-7.565-.423-10.791-1.268-3.227-.847-6.116-2.02-8.67-3.52-2.554-1.502-4.779-3.305-6.677-5.409-1.897-2.105-3.502-4.435-4.813-6.987l13.354-7.557c.207,2.795.673,5.461,1.397,7.996.725,2.537,1.76,4.771,3.105,6.703,1.346,1.932,3.028,3.484,5.047,4.658,2.019,1.173,4.425,1.794,7.22,1.863,1.449,0,2.821-.207,4.115-.621s2.424-1.001,3.39-1.76c.966-.76,1.726-1.674,2.277-2.743.552-1.07.828-2.261.828-3.571,0-1.76-.587-3.434-1.76-5.021-1.173-1.588-2.726-3.141-4.658-4.658s-4.123-3.028-6.573-4.528c-2.45-1.502-4.96-3.071-7.53-4.711-2.571-1.638-5.081-3.354-7.531-5.149-2.45-1.794-4.641-3.734-6.573-5.823-1.933-2.087-3.485-4.364-4.658-6.832-1.173-2.466-1.76-5.166-1.76-8.1,0-2.139.354-4.062,1.062-5.771.707-1.707,1.647-3.226,2.82-4.555,1.173-1.327,2.536-2.484,4.089-3.467,1.553-.984,3.175-1.838,4.865-2.562h-16.2Z"
              style="fill:#0e192a; stroke:#f2f1e5; stroke-miterlimit:10; stroke-width:2.5px;"/>
        <path d="M590.44,235.435c-.069.76-.104,1.493-.104,2.2v2.147c0,3.278.207,6.47.621,9.575s1.182,5.866,2.304,8.281c1.121,2.416,2.683,4.373,4.684,5.875,2.001,1.5,4.589,2.286,7.764,2.354,2.036,0,3.856-.327,5.461-.983,1.604-.655,3.01-1.561,4.218-2.717s2.243-2.511,3.105-4.063,1.587-3.243,2.174-5.072l12.215,4.141c-1.242,1.76-2.726,3.382-4.451,4.865-1.726,1.484-3.7,2.769-5.926,3.856-2.226,1.086-4.71,1.94-7.453,2.562s-5.754.932-9.032.932c-3.692,0-7.039-.406-10.041-1.216-3.002-.811-5.685-1.924-8.048-3.339-2.364-1.414-4.417-3.079-6.159-4.995-1.743-1.914-3.192-3.959-4.348-6.133-1.156-2.174-2.011-4.434-2.562-6.78-.552-2.346-.828-4.658-.828-6.936,0-2.174.25-4.407.751-6.702.5-2.295,1.285-4.546,2.354-6.755,1.069-2.208,2.424-4.287,4.063-6.237,1.639-1.948,3.605-3.665,5.9-5.149,2.294-1.483,4.925-2.656,7.893-3.52,2.968-.862,6.297-1.294,9.989-1.294,5.417,0,10.032.673,13.846,2.019,3.812,1.346,6.952,3.166,9.42,5.46,2.467,2.296,4.312,4.961,5.538,7.997,1.225,3.037,1.975,6.246,2.251,9.627h-45.599ZM605.294,213.955c-2.519,0-4.649.466-6.392,1.397-1.743.932-3.184,2.209-4.322,3.83-1.139,1.622-2.01,3.528-2.613,5.72-.604,2.191-1.044,4.546-1.32,7.064h29.191c-.207-2.484-.578-4.813-1.112-6.987-.535-2.174-1.346-4.08-2.433-5.72-1.087-1.638-2.52-2.932-4.296-3.881-1.777-.949-4.012-1.424-6.703-1.424Z"
              style="fill:#0e192a; stroke:#f2f1e5; stroke-miterlimit:10; stroke-width:2.5px;"/>
    </g>
</svg>