<?xml version="1.0" encoding="UTF-8"?>
<svg id="Layer_2" xmlns="http://www.w3.org/2000/svg" viewBox="0 0 698.762 634.196">
    <g id="Layer_1-2">
        <path d="M694.467,366.438c-17.715-12.51-26.313,17.418-2,13-45.838,210.519-296.494,309.649-498.5,224-87.337-37.03-159.352-118.837-184.5-210.5C-38.25,219.012,101.75,52.132,264.967,10.438c149.293-38.138,320.077,30.684,395.5,166.5,33.501,60.326,45.607,121.324,34,189.5Z"
              style="fill:#fcfcfc; stroke-width:0px;"/>
        <path d="M694.467,366.438c-.724,4.25-1.086,8.803-2,13-24.313,4.418-15.715-25.51,2-13Z"
              style="fill:#fed99b; stroke-width:0px;"/>
        <path d="M323.967,2.438c13.073-2.847,18.338,18.11,6,21-16.837,3.944-16.343-18.747-6-21Z"
              style="fill:#fed99b; stroke-width:0px;"/>
        <path d="M100.967,121.438c3.54-.455,10.276,14.351,3,20-6.813,5.289-7.319-1.972-16.5-8.5,7.233-2.912,12.621-11.387,13.5-11.5Z"
              style="fill:#fed99b; stroke-width:0px;"/>
        <path d="M194.967,70.438c2.654,5.431-.228,6.056,6.5,9.5-9.47,11.412-5.085,1.57-13.5,6.5-5.675-18.786-2.122-4.591,7-16Z"
              style="fill:#656c77; stroke-width:0px;"/>
        <path d="M222.967,38.438c1.276,4.775,5.403,5.065,5.5,5.5.086.386-3.973,6.331-4.5,6.5-4.889,1.568-11.721-6.226-1-12Z"
              style="fill:#fed99b; stroke-width:0px;"/>
        <path d="M174.467,399.438c.063.315-.034.673,0,1,.011.103-2.148-.272-2,.5.21,1.091,2.836-.281,0,6,6.077,11.191,13.058,22.048,21,32,6.177,7.74,34.552,39.934,42,34.5,20.658,16.801,46.84,29.695,73,35,2.07,3.065,12.651,4.306,11,10.5-7.71,6.208,6.529,7.971-15,8.5-39.394-5.663-57.014-10.211-94.5-25-19.822-7.82-48.329-20.325-65-33-53.945-41.017-77.872-122.476-43-183-14.124,47.819-8.117,108.693,33,142,30.808,24.956,3.316-4.514-3.5-15.5-43.497-70.114-18.706-127.743,22-191.5,3.912.925,4.088,7.68,5,12.5.153.808,1.912.206,2,1,.248,2.244-3.909,7.562-4,8-.121.581,4.529,7.669-2,9,2.735,8.555-1.892,22.326,2,38-6.346,23.479.649,74.788,10,98,1.289,3.2,4.754,11.525,8,11.5Z"
              style="fill:#61a7b5; stroke-width:0px;"/>
        <path d="M153.467,221.438c-40.706,63.757-65.497,121.386-22,191.5,6.816,10.986,34.308,40.456,3.5,15.5-41.117-33.307-47.124-94.181-33-142-34.872,60.524-10.945,141.983,43,183,16.671,12.675,45.178,25.18,65,33,37.486,14.789,55.106,19.337,94.5,25,15.21,2.186-.149,3.935-15.5,5-53.766,3.729-109.599-7.127-157-33-98.513-53.772-110.6-148.244-37.5-231.5,11.7-13.325,51.75-46.156,57.5-47.5,1.691-.395,1.412.979,1.5,1Z"
              style="fill:#fdbe56; stroke-width:0px;"/>
        <path d="M498.467,106.863c-1.873-.229.181,2.265,1.5,3,33.946,18.904,58.918,48.579,75.5,83.5.243.512-.563,7.247,5,8.5,9.833,29.819,14.239,61.121,1,91-30.907,34.504-20.805,11.11-22-.5-.91-8.843-2.645-17.406-10-23-2.733-17.537-7.699-38.346-17-53.5-18.204-36.837-40.831-64.659-77-85-.515-7.24-33.317-15.142-35-18.5,3.758-10.698-.053-15.176,0-16,.071-1.096,4.561,1.37,2-4.5,30.993,3.145,45.354,2.148,76,15Z"
              style="fill:#61a7b5; stroke-width:0px;"/>
        <path d="M581.467,294.438c13.239-29.879,8.833-61.181-1-91-14.035-42.561-39.892-77.341-82-95-30.646-12.852-45.007-11.855-76-15-6.371-.647-20.925-.132-25.5-2-22.852-9.329,36.031-16.485,65-15,126.145,6.467,213.052,113.56,119.5,218Z"
              style="fill:#fdbe56; stroke-width:0px;"/>
        <path d="M632.467,341.438c-3.964,5.493-18.903,16.391,3,11,5.829,10.251,27.552,6.816-7.5,43-4.559,1.733-11.771-5.218-15-8-17.202,14.861-47.443,22.729-69,34,15.198-22.238,33.376-47.625,41.5-73.5,14.781-47.079.703-21.867-15.5-9.5-6.117,4.669-13.637,8.507-20.5,12,7.721-44.952.224-91.07-17-133,9.301,15.154,14.267,35.963,17,53.5,7.355,5.594,9.09,14.157,10,23,1.195,11.61-8.907,35.004,22,.5,93.552-104.44,6.645-211.533-119.5-218-28.969-1.485-87.852,5.671-65,15,4.575,1.868,19.129,1.353,25.5,2,2.561,5.87-1.929,3.404-2,4.5-.053.824,3.758,5.302,0,16,1.683,3.358,34.485,11.26,35,18.5-39.243-22.069-66.756-26.32-111-21-81.099,9.751-145.456,46.427-175,126-15.528,41.821-17.372,91.288-6,134.5,2.376,9.027,10.712,26.047,11,27.5-3.246.025-6.711-8.3-8-11.5-9.351-23.212-16.346-74.521-10-98-3.892-15.674.735-29.445-2-38,6.529-1.331,1.879-8.419,2-9,.091-.438,4.248-5.756,4-8-.088-.794-1.847-.192-2-1-.912-4.82-1.088-11.575-5-12.5-.088-.021.191-1.395-1.5-1-5.75,1.344-45.8,34.175-57.5,47.5-73.1,83.256-61.013,177.728,37.5,231.5,47.401,25.873,103.234,36.729,157,33,15.351-1.065,30.71-2.814,15.5-5,21.529-.529,7.29-2.292,15-8.5,1.651-6.194-8.93-7.435-11-10.5,4.01.813,9.75,1.447,14,2,.328.043.672-.04,1,0,2.366.285,4.66.811,7,1,1.643,8.492,26.885,21.88,37,32.5-67.348,18.971-142.816,17.361-206.5-13.5-16.566-1.15,40.596,23.367,46,25,48.936,14.789,132.69,8.238,182-6,46.35-13.384,97.619-43.142,133-76,19.673-18.27,17.676-33.162,41-16,24.5,18.027,16.124,28.246.5,47.5-63.208,77.892-211.426,126.262-308.5,110.5-32.236-5.234-163.832-52.422-135.5-98.5-74.41-41.283-102.399-103.928-94-188,6.985-69.913,62.65-123.464,116.5-162.5,58.547-39.404,110.725-74.762,178-99,63.13-22.744,150.518-39.735,213-9,47.835,23.53,112.076,90.399,128.5,141.5,15.675,48.77.261,100.952-29,141.5Z"
              style="fill:#61a7b5; stroke-width:0px;"/>
        <path d="M635.467,352.438c-21.903,5.391-6.964-5.507-3-11,3.2,6.04,2.718,10.504,3,11Z"
              style="fill:#fed48f; stroke-width:0px;"/>
        <path d="M215.967,566.438c11.325-2.056,11.959,14.001,4,16-11.574,2.908-13.516-14.273-4-16Z"
              style="fill:#fed48f; stroke-width:0px;"/>
        <path d="M433.967,566.438c6.702-1.544,7.581,9.178,2,10-5.887.867-7.181-8.807-2-10Z"
              style="fill:#fdc15d; stroke-width:0px;"/>
        <path d="M591.967,418.438c31.826-6.748,32.984,40.76,4,39-22.667-1.377-22.333-35.113-4-39Z"
              style="fill:#0c171c; stroke-width:0px;"/>
        <path d="M593.967,427.438c13.048-1.89,9.763,21.851-3,15-6.182-3.318-3.124-14.113,3-15Z"
              style="fill:#fed99b; stroke-width:0px;"/>
        <path d="M154.967,110.438c23.585-5.147,28.908,27.624,11,33-24.914,7.479-29.154-29.038-11-33Z"
              style="fill:#fdc15d; stroke-width:0px;"/>
        <path d="M156.967,118.438c9.914-2.057,12.638,14.184,4,16-11.424,2.402-11.879-14.366-4-16Z"
              style="fill:#fee1b1; stroke-width:0px;"/>
        <path d="M174.467,400.438c14.643,24.916,38.643,54.817,61,73-7.448,5.434-35.823-26.76-42-34.5-7.942-9.952-14.923-20.809-21-32,2.836-6.281.21-4.909,0-6-.148-.772,2.011-.397,2-.5Z"
              style="fill:#61a7b5; stroke-width:0px;"/>
        <path d="M580.467,203.438c-5.563-1.253-4.757-7.988-5-8.5-16.582-34.921-41.554-64.596-75.5-83.5-1.319-.735-3.373-3.229-1.5-3,42.108,17.659,67.965,52.439,82,95Z"
              style="fill:#61a7b5; stroke-width:0px;"/>
        <path d="M455.467,132.438c36.169,20.341,58.796,48.163,77,85,17.224,41.93,24.721,88.048,17,133-2.297,13.376-14.439,53.341-23,63-1.092,1.232-3.269,2.517-4.5,5l-1.5-1.5c2.919-3.249,11.418-17.165,7-19,.417-1.026,2.599.024,3-1,5.515-14.076,12.079-28.863,9.5-44.5-4.592-2.009-3.293.828-9.5,0,7.886-.153,10.344-17.792,11-24.5,5.658-57.898-17.979-127.392-62-166.5-1.557-1.383-3.378-2.679-5-4-12.024-9.792-38.87-27.782-54-29-3.341-2.909-7.933-4.579-12-6-43.913-15.343-68.528.649-39,15.5l-12,13.5c1.087-3.996,2.053-6.164,2-6.5-.221-1.4-13.176-10.004-8-25.5l-7-8c44.244-5.32,71.757-1.069,111,21Z"
              style="fill:#0c171c; stroke-width:0px;"/>
        <path d="M167.467,286.438c-1.318,11.792-7.047,30.111,8,35,.017.332-.009.667,0,1,.377,14.081,22.773,2.814,26,21-4.187-3.911-3.092-10.679-23.5-11-15.174-28.355-12.645-3.304-10.5,12.5,3.404,25.072,13.514,47.427,27,68.5,3.314,5.179,7.266,10.111,11,15,5.139,6.727,29.019,37.638,36,35,.355,3.634,5.625,6.315,9,9,12.965,10.315,36.807,20.758,53,24,5.605,1.122,11.247,1.948,17,2,.436,5.976-1.952,7.608,2,12-4.25-.553-9.99-1.187-14-2-26.16-5.305-52.342-18.199-73-35-22.357-18.183-46.357-48.084-61-73-.034-.327.063-.685,0-1-.288-1.453-8.624-18.473-11-27.5-11.372-43.212-9.528-92.679,6-134.5-9.594,31.648,1.071,19.003,2,21.5.491,1.321-7.94,23.559-4,27.5Z"
              style="fill:#f6962e; stroke-width:0px;"/>
        <path d="M344.467,111.438l7,8c-23.594,2.266-45.838,6.533-68,15-29.009,11.084-48.259,25.165-69,48-1.263,1.391-2.68,2.445-4,4-14.754,17.385-25.427,36.47-33,58-5.3,15.069-8.206,25.955-10,42-3.94-3.941,4.491-26.179,4-27.5-.929-2.497-11.594,10.148-2-21.5,29.544-79.573,93.901-116.249,175-126Z"
              style="fill:#fdbe56; stroke-width:0px;"/>
        <path d="M518.467,348.438c-6.142-5.822-3.784-8.025-4-8.5-3.423-7.534-5.812-14.049-8-22,.092-7.729,4.747-56.658-3.5-37.5-11.915,1.332-2.62,10.673-10.5,11,6.107-15.896,1.124-19.831,2-31.5.072-.963,2.771-6.736,3-9.5,3.533-1.854,3.439-2.602,6,.5,14.234,17.244-3.487,65.49,15,97.5Z"
              style="fill:#0c171c; stroke-width:0px;"/>
        <path d="M314.467,461.438c1.416,6.051.637,11.241-1,17-1.927,6.778-6.325,12.205-10,18-16.193-3.242-40.035-13.685-53-24-3.113-3.603,6.741-11.413,10.5-14,20.279-13.954,33.934-7.758,53.5,3Z"
              style="fill:#fdbe56; stroke-width:0px;"/>
        <path d="M314.467,461.438c-19.566-10.758-33.221-16.954-53.5-3-3.759,2.587-13.613,10.397-10.5,14-3.375-2.685-8.645-5.366-9-9,5.138-4.877,7.228-5.61,14.5-5,8.6-22.693,54.236-15.226,58.5,3Z"
              style="fill:#f2f1e5; stroke-width:0px;"/>
        <path d="M320.467,498.438c-5.753-.052-11.395-.878-17-2,3.675-5.795,8.073-11.222,10-18,10.539,3.579,30.302,20.21,7,20Z"
              style="fill:#f6962e; stroke-width:0px;"/>
        <path d="M353.467,214.438c-23.254,13.514-48.009,59.262-19,74,29.083,14.776,57.633-18.783,72.5,21,3.384.783,12.249,2.725,14,4,12.057,8.778,5.879,78.255,24,88,3.836,2.063,7.282,1.54,9.5,2,19.606,4.066,33.272-8.341,40-26.5,10.302-27.806-.966-23.495-19-43,.297-20.129,14.226-35.28,17-42.5,7.88-.327-1.415-9.668,10.5-11,8.247-19.158,3.592,29.771,3.5,37.5,2.188,7.951,4.577,14.466,8,22,.216.475-2.142,2.678,4,8.5,2.151,2.039,4.027,3.279,7,4,1.258.305,3.362-.219,5,0,6.207.828,4.908-2.009,9.5,0,2.579,15.637-3.985,30.424-9.5,44.5-.401,1.024-2.583-.026-3,1,4.418,1.835-4.081,15.751-7,19l1.5,1.5c1.231-2.483,3.408-3.768,4.5-5-4.183,10.667-11.813,19.383-19,28-4.555-3.405-1.374,4.889-13,8.5-.861,6.761-6.036,5.169-7.5,6.5-4.401,4.001-11.872,14.101-13,15-4.507,3.595-33.671,20.662-39,23-.102.045-.894-1.473-2-1-37.493,16.044-60.05,16.798-101,17-1.367-.497,1.976-8.434-8.5,0-.328-.04-.672.043-1,0-3.952-4.392-1.564-6.024-2-12,23.302.21,3.539-16.421-7-20,1.637-5.759,2.416-10.949,1-17-4.264-18.226-49.9-25.693-58.5-3-7.272-.61-9.362.123-14.5,5,13.705-20.55,21.647-29.476,47.5-27,48.131,4.61,67.983,70.775,120.5,1.5-36.565-2.356-33.175-41.979-9.5-55.5,15.562-8.888,24.486,3.322,25.5-.5l-8-56c-32.169-9.622-59.437-2.736-87.5-25.5-22.494-18.246-20.184-46.931-5.5-69.5,31.696-48.717,84.952-20.188,70-40-.723-.958-2.049-.381-3-.5.299-.154,4.906-4.177,5-4.5.134-.458-3.751-5.264-3.5-5.5.769-.724,6.774-.787,7.5,1.5-5.279,7.173,5.696,20.396,3.5,21.5-15.812,2.209-41.441-1.779-50.5,11Z"
              style="fill:#0e192a; stroke-width:0px;"/>
        <path d="M507.467,441.438c-43.871,52.595-109.397,75.47-177,70-2.34-.189-4.634-.715-7-1,10.476-8.434,7.133-.497,8.5,0,40.95-.202,63.507-.956,101-17,1.106-.473,1.898,1.045,2,1,5.329-2.338,34.493-19.405,39-23,1.128-.899,8.599-10.999,13-15,1.464-1.331,6.639.261,7.5-6.5,11.626-3.611,8.445-11.905,13-8.5Z"
              style="fill:#0e192a; stroke-width:0px;"/>
        <path d="M429.467,403.438c1.481,3,2.435,6.281,3,7-1.534,5.96.163,14.315-7,17-9.965-.781-17.859,1.579-27-4-8.389-23.937,14.468-41.158,31-20Z"
              style="fill:#0e192a; stroke-width:0px;"/>
        <path d="M429.467,403.438c-16.532-21.158-39.389-3.937-31,20-16.622-10.144.233-31.898,7.5-35,20.838-8.896,19.208,6.305,23.5,15Z"
              style="fill:#0e192a; stroke-width:0px;"/>
        <path d="M425.467,427.438c7.163-2.685,5.466-11.04,7-17,1.67,2.126,16.398,10.828,16,13.5-.273,1.833-10.633,6.322-12.5,6.5-9.758.932-9.896-2.953-10.5-3Z"
              style="fill:#0e192a; stroke-width:0px;"/>
        <path d="M206.467,414.438c-1.528-1.696-6.79-6.595-9-7,4.222-5.382,16.771-4.391,20-8.5,18.769-57.754,3.609-40.092-12.5-50.5-3.607-2.331-3.277-4.792-3.5-5-3.227-18.186-25.623-6.919-26-21,16.461-2.094,2.874-23.843,2-35,1.866-1.813,20.789-8.675,23.5-11,4.835-4.146,8.32-16.962,12.5-22.5,2.402-3.182,3.857-2.313,4-2.5,5.532-.407,11.537.56,17,0,2.52-.258,5.279.967,7-1.5-.332-11.233.358-22.384,2-33.5.543-3.677,1.105-7.399,2-11,12.367,10.62,12.517,27.795,10,42.5-4.014,23.455-17.878,22.172-37,29-9.323,16.569-20.478,31.964-27,50,5.634,2.633,28.369,16.093,30,18,9.249,10.814,16.215,58.913,11,71-5.797,13.437-17.779,2.038-26-1.5Z"
              style="fill:#f6962e; stroke-width:0px;"/>
        <path d="M201.467,343.438c.223.208-.107,2.669,3.5,5,16.109,10.408,31.269-7.254,12.5,50.5-3.229,4.109-15.778,3.118-20,8.5-.635.81-.418,5.527-3,6-13.486-21.073-23.596-43.428-27-68.5-2.145-15.804-4.674-40.855,10.5-12.5,20.408.321,19.313,7.089,23.5,11Z"
              style="fill:#0d5877; stroke-width:0px;"/>
        <path d="M206.467,414.438c6.046,6.71,9.217,8.843-1,14-3.734-4.889-7.686-9.821-11-15,2.582-.473,2.365-5.19,3-6,2.21.405,7.472,5.304,9,7Z"
              style="fill:#fed99b; stroke-width:0px;"/>
        <path d="M289.467,144.438c-4.561,1.569-9.804,3.901-13.5,7-23.27,19.506,3.542,35.22-11,43-9.998,5.349-17.886-14.345-27.5-4-7.081-3.628-15.481-5.49-23-8,20.741-22.835,39.991-36.916,69-48,3.451,2.759,4.109,6.506,6,10Z"
              style="fill:#fdbe56; stroke-width:0px;"/>
        <path d="M289.467,144.438c.478.883,11.324,10.512,1.5,17-2.378,1.571-9.906,1.412-13,4-8.569,7.169,4.285,23.861-3.5,35.5-7.197,10.76-15.343,3.854-27-2.5-4.686-2.554-9.43-7.708-10-8,9.614-10.345,17.502,9.349,27.5,4,14.542-7.78-12.27-23.494,11-43,3.696-3.099,8.939-5.431,13.5-7Z"
              style="fill:#f6962e; stroke-width:0px;"/>
        <path d="M462.467,186.438c-.304,4.224,16.117,41.076,16,74-.088,24.812-8.474,43.682-21,64.5.107,8.874,13.335,22.632,16,36,3.847,19.293-.955,33.568-19,42.5-2.218-.46-5.664.063-9.5-2-18.121-9.745-11.943-79.222-24-88-1.751-1.275-10.616-3.217-14-4-14.867-39.783-43.417-6.224-72.5-21-23.409-38.265,17.209-79.761,57.5-78-1.506-6.668,9.887.195,10.5-5,6.15-.603,4.746-.976,5-1,.426-.041,2.018,1.606,8.5,1,4.318-.404,30.47-3.492,32-4,3.963-1.317,13.895-12.059,9.5-15,1.855.117,2.293,1.035,5,0Z"
              style="fill:#0d5877; stroke-width:0px;"/>
        <path d="M530.467,352.438c-1.638-.219-3.742.305-5,0,1.474-13.373-6.638-26.356-8-39.5-1.162-11.211-.283-31.978-2-52.5-3.513-41.991-8.235-52.029-28-89.5-3.666-4.257-10.369-6.468-8-9.5,44.021,39.108,67.658,108.602,62,166.5-.656,6.708-3.114,24.347-11,24.5Z"
              style="fill:#0e192a; stroke-width:0px;"/>
        <path d="M497.467,250.438c-.229,2.764-2.928,8.537-3,9.5-.876,11.669,4.107,15.604-2,31.5-2.774,7.22-16.703,22.371-17,42.5,18.034,19.505,29.302,15.194,19,43-6.728,18.159-20.394,30.566-40,26.5,18.045-8.932,22.847-23.207,19-42.5-2.665-13.368-15.893-27.126-16-36,12.526-20.818,20.912-39.688,21-64.5,22.599,5.553,10.569-6.008,19-12-.025.663.055,1.341,0,2Z"
              style="fill:#0e192a; stroke-width:0px;"/>
        <path d="M407.467,124.438c12.008,2.888-2.596,1.165-6.5,2-14.123,3.019-21.852,17.502-20.5,31-.18.152.62,1.66-2.5,4-14.843-12.293-13.389,5.098-16,6-31.756-10.995-37.007,31.112,27,15,14.459-20.711,29.741-2.558,44,1,1.855.463,5.296-.392,7.5,0,3.476.618,6.471-1.482,9,2.5,6.733,10.603-17.507,8.954-22.5,12.5-9.336.075-29.515-24.448-19.5,6-.254.024,1.15.397-5,1-20.15,1.975-30.474-1.767-49,9,9.059-12.779,34.688-8.791,50.5-11,2.196-1.104-8.779-14.327-3.5-21.5-.726-2.287-6.731-2.224-7.5-1.5-.251.236,3.634,5.042,3.5,5.5-.094.323-4.701,4.346-5,4.5-2.262,1.164-36.902,10.015-49.5,2-13.058-8.307-10.076-18.948-4.5-30,2.568.567,4.728-2.895,5-3,3.091-1.191,9.558-1.383,13-2,.526-.094,1.618,1.571,4.5,1,9.995-8.645,8.017-23.149,20-30,7.03-4.019,19.695-5.877,27.5-4Z"
              style="fill:#0c171c; stroke-width:0px;"/>
        <path d="M515.467,260.438c1.717,20.522.838,41.289,2,52.5,1.362,13.144,9.474,26.127,8,39.5-2.973-.721-4.849-1.961-7-4-18.487-32.01-.766-80.256-15-97.5-2.561-3.102-2.467-2.354-6-.5.055-.659-.025-1.337,0-2,9.802-6.967,14.505,4.699,18,12Z"
              style="fill:#137b90; stroke-width:0px;"/>
        <path d="M402.467,205.438c-.613,5.195-12.006-1.668-10.5,5-40.291-1.761-80.909,39.735-57.5,78-29.009-14.738-4.254-60.486,19-74,18.526-10.767,28.85-7.025,49-9Z"
              style="fill:#61a7b5; stroke-width:0px;"/>
        <path d="M420.467,128.438c15.13,1.218,41.976,19.208,54,29l-12,29c-2.707,1.035-3.145.117-5,0-10.648-.673-13.479-9.546-17-3-2.204-.392-5.645.463-7.5,0-14.259-3.558-29.541-21.711-44-1-64.007,16.112-58.756-25.995-27-15,2.611-.902,1.157-18.293,16-6,3.12-2.34,2.32-3.848,2.5-4,7.268-6.136,16.595-17.349,21.5-21,4.639-3.454,10.902-4.073,13-9,1.951,1.021,3.458.836,5.5,1Z"
              style="fill:#0d5877; stroke-width:0px;"/>
        <path d="M479.467,161.438c-2.369,3.032,4.334,5.243,8,9.5,19.765,37.471,24.487,47.509,28,89.5-3.495-7.301-8.198-18.967-18-12-8.431,5.992,3.599,17.553-19,12,.117-32.924-16.304-69.776-16-74l12-29c1.622,1.321,3.443,2.617,5,4Z"
              style="fill:#0e192a; stroke-width:0px;"/>
        <path d="M408.467,122.438l-1,2c-7.805-1.877-20.47-.019-27.5,4-11.983,6.851-10.005,21.355-20,30-2.882.571-3.974-1.094-4.5-1,.363-2.145,1.424-3.883,2-6l12-13.5c-29.528-14.851-4.913-30.843,39-15.5Z"
              style="fill:#0d5877; stroke-width:0px;"/>
        <path d="M420.467,128.438c-2.042-.164-3.549.021-5.5-1-2.098,4.927-8.361,5.546-13,9-4.905,3.651-14.232,14.864-21.5,21-1.352-13.498,6.377-27.981,20.5-31,3.904-.835,18.508.888,6.5-2l1-2c4.067,1.421,8.659,3.091,12,6Z"
              style="fill:#0d5877; stroke-width:0px;"/>
        <path d="M457.467,186.438c4.395,2.941-5.537,13.683-9.5,15-1.53.508-27.682,3.596-32,4-6.482.606-8.074-1.041-8.5-1-10.015-30.448,10.164-5.925,19.5-6,4.993-3.546,29.233-1.897,22.5-12.5-2.529-3.982-5.524-1.882-9-2.5,3.521-6.546,6.352,2.327,17,3Z"
              style="fill:#61a7b5; stroke-width:0px;"/>
        <path d="M237.467,190.438c.57.292,5.314,5.446,10,8-.485,2.391-1.41,4.627-2,7-.895,3.601-1.457,7.323-2,11-4.3,5.862-7.639,12.134-12,18-4.415,5.939-9.498,11.128-14,17-.143.187-1.598-.682-4,2.5-4.18,5.538-7.665,18.354-12.5,22.5-2.711,2.325-21.634,9.187-23.5,11-5.663,5.503-1.985,18.543,0,25.5.752,8.679-2.039,7.742-2,8.5-15.047-4.889-9.318-23.208-8-35,1.794-16.045,4.7-26.931,10-42l33-58c1.32-1.555,2.737-2.609,4-4,7.519,2.51,15.919,4.372,23,8Z"
              style="fill:#fed99b; stroke-width:0px;"/>
        <path d="M175.467,322.438c-.009-.333.017-.668,0-1-.039-.758,2.752.179,2-8.5-1.985-6.957-5.663-19.997,0-25.5.874,11.157,14.461,32.906-2,35Z"
              style="fill:#fed48f; stroke-width:0px;"/>
        <path d="M177.467,244.438c7.573-21.53,18.246-40.615,33-58l-33,58Z" style="fill:#fee5bb; stroke-width:0px;"/>
        <path d="M243.467,216.438c-1.642,11.116-2.332,22.267-2,33.5-1.721,2.467-4.48,1.242-7,1.5-1.723-5.555.661-12.834-3-17,4.361-5.866,7.7-12.138,12-18Z"
              style="fill:#fed48f; stroke-width:0px;"/>
        <path d="M234.467,251.438c-5.463.56-11.468-.407-17,0,4.502-5.872,9.585-11.061,14-17,3.661,4.166,1.277,11.445,3,17Z"
              style="fill:#fed085; stroke-width:0px;"/>
        <path d="M351.467,119.438c-5.176,15.496,7.779,24.1,8,25.5.053.336-.913,2.504-2,6.5-.576,2.117-1.637,3.855-2,6-3.442.617-9.909.809-13,2-4.858-9.142-4.439,1.888-5,3-5.576,11.052-8.558,21.693,4.5,30,12.598,8.015,47.238-.836,49.5-2,.951.119,2.277-.458,3,.5,14.952,19.812-38.304-8.717-70,40-14.684,22.569-16.994,51.254,5.5,69.5,28.063,22.764,55.331,15.878,87.5,25.5l8,56c-1.014,3.822-9.938-8.388-25.5.5-23.675,13.521-27.065,53.144,9.5,55.5-52.517,69.275-72.369,3.11-120.5-1.5-25.853-2.476-33.795,6.45-47.5,27-6.981,2.638-30.861-28.273-36-35,10.217-5.157,7.046-7.29,1-14,8.221,3.538,20.203,14.937,26,1.5,5.215-12.087-1.751-60.186-11-71-1.631-1.907-24.366-15.367-30-18,6.522-18.036,17.677-33.431,27-50,19.122-6.828,32.986-5.545,37-29,2.517-14.705,2.367-31.88-10-42.5.59-2.373,1.515-4.609,2-7,11.657,6.354,19.803,13.26,27,2.5,7.785-11.639-5.069-28.331,3.5-35.5,3.094-2.588,10.622-2.429,13-4,9.824-6.488-1.022-16.117-1.5-17-1.891-3.494-2.549-7.241-6-10,22.162-8.467,44.406-12.734,68-15Z"
              style="fill:#fdcc79; stroke-width:0px;"/>
        <path d="M219.967,333.438c6.957-2.387,7.284,7.353,2,8-4.491.55-6.404-6.489-2-8Z"
              style="fill:#137b90; stroke-width:0px;"/>
        <path d="M313.967,230.438c5.16-2.476,7.671,5.238,4,7-5.16,2.476-7.671-5.238-4-7Z"
              style="fill:#9cc8d0; stroke-width:0px;"/>
        <path d="M276.967,207.438c5.194-1.302,6.088,7.979,1,8-3.949.016-4.749-7.06-1-8Z"
              style="fill:#9cc8d0; stroke-width:0px;"/>
        <path d="M354.967,318.438c6.145-2.949,7.472,6.86,2,7-4.219.108-4.75-5.68-2-7Z"
              style="fill:#5a8da3; stroke-width:0px;"/>
        <path d="M285.967,290.438c6.313,9.469-2.309,13.626-5.5,2.5,2.965-1.361,3.959,2.24,5.5-2.5Z"
              style="fill:#f6962e; stroke-width:0px;"/>
        <path d="M342.467,159.438c-.272.105-2.432,3.567-5,3,.561-1.112.142-12.142,5-3Z"
              style="fill:#f2f1e5; stroke-width:0px;"/>
        <path d="M299.967,331.438c40.228-3.695,87.204,42.789,66.5,75.5-7.763,12.266-26.343,14.848-39.5,13.5-38.862,28.277-84.245-11.843-68.5-56.5,5.641-15.999,24.818-30.968,41.5-32.5Z"
              style="fill:#f6962e; stroke-width:0px;"/>
        <path d="M294.467,415.438c-3.38-35.629,31.426-39.668,14-42-.06-4.039-2.014-3.9-2-5,.215-16.73,1.283-17.922,17-25,27.114,11.129,37.518,61.469.5,51-5.27,15.143-13.891,21.018-29.5,21Z"
              style="fill:#fdbe56; stroke-width:0px;"/>
        <path d="M323.467,343.438c-15.717,7.078-16.785,8.27-17,25-7.479-6.354-17.302-1.355-15,8.5,1.597,6.838,17.194,9.635,17-3.5,17.426,2.332-17.38,6.371-14,42-1.029-.001-.135.708-4,0-4.588-17.805-4.564-20.026-19-11-24.865-29.865,10.807-77.908,52-61Z"
              style="fill:#f2f1e5; stroke-width:0px;"/>
        <path d="M290.467,415.438c-9.394-1.72-12.854-3.619-19-11,14.436-9.026,14.412-6.805,19,11Z"
              style="fill:#fdbe56; stroke-width:0px;"/>
        <path d="M306.467,368.438c-.014,1.1,1.94.961,2,5,.194,13.135-15.403,10.338-17,3.5-2.302-9.855,7.521-14.854,15-8.5Z"
              style="fill:#b24449; stroke-width:0px;"/>
    </g>
</svg>